<?xml version="1.0" encoding="UTF-8"?>
<svg version="1.1" xmlns="http://www.w3.org/2000/svg" width="512" height="512">
<path d="M0 0 C2.03395522 0.8969063 4.06780678 1.79404768 6.1015625 2.69140625 C8.24234584 3.61333747 10.38429393 4.53256835 12.52734375 5.44921875 C16.88041699 7.3135991 21.2283645 9.18920828 25.57275391 11.07373047 C33.61888943 14.55500973 41.71828795 17.90344387 49.82553101 21.23928833 C53.99338757 22.95584116 58.15674477 24.68323259 62.3203125 26.41015625 C63.57964851 26.93223412 63.57964851 26.93223412 64.86442566 27.46485901 C76.52756734 32.30157954 88.18013684 37.1637258 99.83364868 42.02359009 C112.44241868 47.28169547 125.05669923 52.52607659 137.68017578 57.7487793 C143.56251232 60.18286582 149.44123499 62.62562338 155.31915283 65.07035828 C159.79093512 66.92892199 164.26975321 68.76907609 168.75390625 70.59765625 C170.64085117 71.37835982 172.52759565 72.15954819 174.4140625 72.94140625 C175.20063232 73.25553467 175.98720215 73.56966309 176.79760742 73.89331055 C182.79717161 76.40824849 187.69511681 79.63313823 191.3604126 85.09580994 C193.43736027 90.41389005 193.20681969 95.3864213 193.17724609 101.04785156 C193.18513153 102.903097 193.18513153 102.903097 193.19317627 104.79582214 C193.20410762 108.18366217 193.20155197 111.57095124 193.19203901 114.95876026 C193.18439881 118.53271492 193.19150315 122.10664735 193.19619751 125.68060303 C193.20165657 131.7029639 193.19447432 137.7252145 193.18017578 143.74755859 C193.16399723 150.639822 193.16902789 157.53181705 193.185655 164.42407346 C193.1994451 170.38550847 193.20110132 176.34686439 193.19333899 182.30831027 C193.1887378 185.8481346 193.18781904 189.38783486 193.19794846 192.92765045 C193.25280337 215.11450903 191.93251672 237.02555622 187.5390625 258.81640625 C187.32926758 259.87400146 187.11947266 260.93159668 186.90332031 262.02124023 C179.41278089 298.49303336 165.90469209 333.78676921 146.7890625 365.75390625 C146.33063965 366.52250977 145.8722168 367.29111328 145.39990234 368.08300781 C138.27804862 379.91661248 130.39852007 390.96258013 121.7890625 401.75390625 C120.98597656 402.77097656 120.18289063 403.78804688 119.35546875 404.8359375 C114.56806804 410.80098759 109.48728804 416.44065467 104.26953125 422.02734375 C102.68512089 423.76894758 101.15192838 425.55951904 99.69140625 427.40625 C97.96210236 429.54036014 96.27196843 431.19677773 94.1640625 432.94140625 C90.93218887 435.6953688 87.94102668 438.5890344 84.9765625 441.62890625 C79.88001266 446.75620451 74.50058976 451.33177583 68.7890625 455.75390625 C68.08491211 456.30208008 67.38076172 456.85025391 66.65527344 457.41503906 C-0.58541351 509.520265 -0.58541351 509.520265 -27.86425781 506.26318359 C-37.12783182 504.25279914 -45.83077334 499.02176247 -54.2109375 494.75390625 C-55.91139291 493.90872253 -57.61190935 493.06366158 -59.3125 492.21875 C-82.84922503 480.33599124 -104.41038301 465.11485088 -124.2109375 447.75390625 C-124.96632813 447.109375 -125.72171875 446.46484375 -126.5 445.80078125 C-130.67144559 442.22525646 -134.55586013 438.44124665 -138.40625 434.5234375 C-140.2656989 432.63378612 -140.2656989 432.63378612 -142.7734375 430.75390625 C-145.6079583 428.42814559 -147.8417006 425.84512312 -150.21484375 423.05859375 C-152.35993645 420.58187224 -154.59481608 418.20645146 -156.8359375 415.81640625 C-163.4746241 408.5239096 -169.35046613 400.67668785 -175.2109375 392.75390625 C-175.72446777 392.06522461 -176.23799805 391.37654297 -176.76708984 390.66699219 C-184.67865985 380.00456751 -191.45714454 368.87505291 -197.84423828 357.24072266 C-199.08649679 354.98033588 -200.34765563 352.73172279 -201.61328125 350.484375 C-225.46608763 307.52139526 -239.32538221 255.69020568 -239.37207031 206.57495117 C-239.37703522 205.30526489 -239.38200012 204.03557861 -239.38711548 202.72741699 C-239.40009671 199.27942881 -239.40665409 195.83145995 -239.41112614 192.38345122 C-239.41407534 190.22497986 -239.41818306 188.06651358 -239.42263031 185.90804482 C-239.43625685 179.14096582 -239.44595157 172.37389868 -239.4498322 165.60680693 C-239.45432531 157.81780151 -239.47195123 150.02897047 -239.5008328 142.24001807 C-239.52245433 136.19813531 -239.53253645 130.15630169 -239.53387332 124.11438066 C-239.53491941 120.51376329 -239.54078754 116.91331097 -239.55869293 113.3127346 C-239.57824939 109.30367771 -239.57388288 105.29498799 -239.56738281 101.28588867 C-239.5765976 100.09979507 -239.58581238 98.91370148 -239.5953064 97.69166565 C-239.56156669 91.06019563 -239.1656584 86.33040586 -234.79321289 81.0378418 C-229.62155205 76.57619278 -223.9331064 74.13175578 -217.6484375 71.56640625 C-216.45734375 71.06794189 -215.26625 70.56947754 -214.0390625 70.0559082 C-210.5648248 68.60327823 -207.08325491 67.16896074 -203.60028076 65.73742676 C-200.1396626 64.31293954 -196.68270659 62.87964952 -193.22543335 61.44706726 C-184.38758111 57.78517727 -175.54477299 54.13542808 -166.69921875 50.4921875 C-156.75527626 46.39575401 -146.82324634 42.27145095 -136.8984375 38.12890625 C-124.27978544 32.86353502 -111.6545853 27.61423469 -99.0234375 22.37890625 C-98.17979645 22.02920776 -97.3361554 21.67950928 -96.46694946 21.31921387 C-88.48367988 18.01015974 -80.49994368 14.702232 -72.51611328 11.39453125 C-67.78081891 9.43268099 -63.04568642 7.47044044 -58.31063843 5.50799561 C-55.64709063 4.40424751 -52.98333971 3.30099067 -50.31958008 2.19775391 C-48.68700136 1.52118385 -47.05443248 0.84459006 -45.421875 0.16796875 C-44.69142471 -0.13439697 -43.96097443 -0.4367627 -43.20838928 -0.74829102 C-42.51877609 -1.03422119 -41.8291629 -1.32015137 -41.11865234 -1.61474609 C-40.46010757 -1.88631027 -39.80156281 -2.15787445 -39.12306213 -2.43766785 C-37.25798738 -3.22620156 -35.41612866 -4.0689505 -33.57543945 -4.9128418 C-21.62627704 -9.6479391 -11.04480247 -4.77266118 0 0 Z M-34.76171875 40.09375 C-35.59564651 40.44684235 -36.42957428 40.79993469 -37.28877258 41.16372681 C-40.03785687 42.33001841 -42.78044306 43.51087213 -45.5234375 44.69140625 C-47.45895144 45.51481675 -49.39499536 46.33698248 -51.33154297 47.15795898 C-55.33113571 48.85397865 -59.32891193 50.55417999 -63.32568359 52.25683594 C-71.30183713 55.6482713 -79.3083379 58.96566662 -87.31845093 62.27590942 C-90.70656686 63.67624415 -94.09349128 65.07944944 -97.48048401 66.48249817 C-100.0262459 67.53698973 -102.57218921 68.59104226 -105.11816406 69.64501953 C-112.79865099 72.82498799 -120.47712193 76.00981895 -128.15576172 79.19424438 C-132.37983495 80.94601792 -136.60396468 82.69765522 -140.828125 84.44921875 C-141.66672058 84.79694839 -142.50531616 85.14467804 -143.36932373 85.50294495 C-148.83594329 87.7695691 -154.30295892 90.03523578 -159.77020264 92.300354 C-163.54895687 93.86595777 -167.32758393 95.43186836 -171.10620117 96.99780273 C-172.90675606 97.74388723 -174.70737319 98.48982155 -176.50805664 99.2355957 C-179.0055291 100.26996418 -181.50278617 101.30485108 -184 102.33984375 C-184.73042511 102.6421994 -185.46085022 102.94455505 -186.21340942 103.256073 C-187.24786697 103.68498337 -187.24786697 103.68498337 -188.30322266 104.12255859 C-188.89237457 104.36662445 -189.48152649 104.61069031 -190.08853149 104.8621521 C-193.13649854 106.14279174 -196.17309172 107.44944214 -199.2109375 108.75390625 C-199.23435579 119.42202789 -199.25199998 130.09014318 -199.26274967 140.75828552 C-199.26791519 145.71468021 -199.27489402 150.67105701 -199.28637695 155.62744141 C-199.81414805 192.77231818 -199.81414805 192.77231818 -196.9609375 229.75390625 C-196.83235352 230.7284375 -196.70376953 231.70296875 -196.57128906 232.70703125 C-191.82017983 266.94135181 -181.63861685 300.28885864 -165.2109375 330.75390625 C-164.63907715 331.82946777 -164.63907715 331.82946777 -164.05566406 332.92675781 C-146.10096463 366.59362774 -121.24892699 398.02508496 -91.2109375 421.75390625 C-90.06714311 422.69695852 -88.92531602 423.64240041 -87.78515625 424.58984375 C-57.48763753 450.07694112 -57.48763753 450.07694112 -22.07421875 462.73828125 C-16.54627483 461.32974549 -11.80192925 458.8486221 -6.7734375 456.19140625 C-5.68321289 455.6193042 -4.59298828 455.04720215 -3.46972656 454.45776367 C16.23696849 443.88886531 35.08750867 430.98351338 51.546875 415.8125 C53.48651299 414.03168254 55.46424673 412.32598801 57.4765625 410.62890625 C67.83591085 401.57500423 77.35729787 391.61644988 85.7890625 380.75390625 C86.66613377 379.66518586 87.54514218 378.57802402 88.42578125 377.4921875 C141.53757876 311.62721465 153.04775169 234.72364025 152.85772705 152.70318604 C152.84734139 147.73442008 152.84289738 142.76564877 152.83789062 137.796875 C152.82729147 128.11587168 152.81031387 118.43489166 152.7890625 108.75390625 C129.78405889 99.10690072 106.76860871 89.4863369 83.72094727 79.94165039 C72.73781747 75.3929899 61.76073939 70.83012001 50.7890625 66.25390625 C35.73111941 59.97369316 20.66239018 53.71968786 5.58984375 47.47460938 C4.35355225 46.96205597 4.35355225 46.96205597 3.09228516 46.43914795 C1.49487777 45.77764366 -0.10308966 45.11748985 -1.70166016 44.45880127 C-5.10016146 43.05656449 -8.48238896 41.63443553 -11.84765625 40.15332031 C-12.89566406 39.6940918 -13.94367188 39.23486328 -15.0234375 38.76171875 C-15.89613281 38.36871582 -16.76882813 37.97571289 -17.66796875 37.57080078 C-24.13928756 35.49197659 -28.83977265 37.5123565 -34.76171875 40.09375 Z " fill="#B5ACFD" transform="translate(279.2109375,6.24609375)"/>
<path d="M0 0 C4.23001302 3.66907651 6.44627114 7.07644253 7.23828125 12.68359375 C7.52734552 20.74009474 6.07544025 26.66610475 0.82341766 32.90158844 C-1.70045476 35.57562878 -4.28211839 38.17797926 -6.89355469 40.76660156 C-7.88690611 41.76538179 -8.87940647 42.76500906 -9.87112427 43.76541138 C-12.55214635 46.46457937 -15.24555895 49.15104804 -17.94201565 51.83478642 C-20.77100834 54.65360604 -23.59017653 57.48222489 -26.41094971 60.30926514 C-31.14830854 65.05388786 -35.89400795 69.79004511 -40.64453125 74.52148438 C-46.12566963 79.98085652 -51.59224965 85.45448879 -57.0514915 90.93575025 C-61.75086553 95.65331414 -66.4580373 100.36299085 -71.17173696 105.06624103 C-73.98183523 107.87012409 -76.78921085 110.67658992 -79.58956146 113.49021149 C-82.22354019 116.13580036 -84.86721865 118.77130741 -87.51848984 121.39956284 C-88.9453348 122.81865226 -90.36242839 124.24752562 -91.77914429 125.67672729 C-98.24275568 132.05590518 -104.10915629 137.11219698 -113.640625 137.18359375 C-114.67058594 137.21710938 -115.70054687 137.250625 -116.76171875 137.28515625 C-127.22592472 135.07591413 -134.92732525 125.27527978 -142.19140625 117.96875 C-143.42405781 116.73812351 -144.65715406 115.50794229 -145.89067078 114.27818298 C-148.46139153 111.71186186 -151.02666716 109.1402531 -153.58813477 106.56469727 C-156.86061349 103.27509209 -160.14642831 99.99919028 -163.43642902 96.7271204 C-165.98042275 94.19399759 -168.51719088 91.65373545 -171.05187035 89.1112957 C-172.26045201 87.90072306 -173.47123775 86.69234649 -174.68432045 85.48628426 C-176.38067893 83.79759886 -178.06703642 82.09949795 -179.7512207 80.39868164 C-180.24634155 79.90963348 -180.7414624 79.42058533 -181.25158691 78.91671753 C-186.52371794 73.54840168 -189.77578953 68.37690779 -189.828125 60.68359375 C-189.60993569 53.84699531 -188.12628349 49.36554034 -183.203125 44.55859375 C-178.09873319 40.39567865 -172.73638743 40.09699878 -166.328125 40.02734375 C-157.19322052 41.58027751 -151.67273791 47.54826865 -145.453125 53.91796875 C-144.55440674 54.8223468 -143.65568848 55.72672485 -142.72973633 56.6585083 C-140.3616943 59.04505549 -138.00271131 61.43986905 -135.64776611 63.83929443 C-133.2348202 66.29342629 -130.81026938 68.73603569 -128.38671875 71.1796875 C-123.64817588 75.96219388 -118.92125433 80.75595203 -114.203125 85.55859375 C-111.08021913 84.17265544 -108.97248228 82.57092229 -106.57351685 80.14930725 C-105.86990021 79.44410446 -105.16628357 78.73890167 -104.44134521 78.0123291 C-103.67969055 77.23877075 -102.91803589 76.4652124 -102.13330078 75.66821289 C-101.3230545 74.85343979 -100.51280823 74.03866669 -99.67800903 73.19920349 C-97.91886412 71.42909824 -96.16199808 69.65672599 -94.40713882 67.8823719 C-91.62940903 65.07451515 -88.845085 62.27335696 -86.05880737 59.47398376 C-79.13840393 52.51952646 -72.2273211 45.5558263 -65.32116699 38.58721924 C-59.48755861 32.7008856 -53.64818448 26.82041524 -47.79992294 20.94863701 C-45.9542397 19.09238312 -44.1114777 17.23321989 -42.27170181 15.37111092 C-39.6984812 12.76670623 -37.11618479 10.17162739 -34.53173828 7.57836914 C-33.39532898 6.42106796 -33.39532898 6.42106796 -32.23596191 5.24038696 C-22.9941622 -3.98533766 -11.52088974 -8.13374816 0 0 Z " fill="#B5ACFD" transform="translate(347.203125,179.44140625)"/>
</svg>
